<mxfile host="Electron" modified="2023-07-14T13:15:32.664Z" agent="Mozilla/5.0 (Windows NT 10.0; Win64; x64) AppleWebKit/537.36 (KHTML, like Gecko) draw.io/21.6.1 Chrome/112.0.5615.204 Electron/24.6.1 Safari/537.36" etag="bW0AbAH-VRN-zHT9WlX-" version="21.6.1" type="device">
  <diagram name="第 1 页" id="lh0-jhITC1arPmrJlxcQ">
    <mxGraphModel dx="1912" dy="1115" grid="1" gridSize="10" guides="1" tooltips="1" connect="1" arrows="1" fold="1" page="1" pageScale="1" pageWidth="1169" pageHeight="827" math="0" shadow="0">
      <root>
        <mxCell id="0" />
        <mxCell id="1" parent="0" />
        <mxCell id="luTgBffPQvsuoYPao9Qs-58" value="" style="group" vertex="1" connectable="0" parent="1">
          <mxGeometry x="80" y="80" width="1120" height="620" as="geometry" />
        </mxCell>
        <mxCell id="luTgBffPQvsuoYPao9Qs-5" value="Pushgateway" style="rounded=0;whiteSpace=wrap;html=1;fontSize=18;" vertex="1" parent="luTgBffPQvsuoYPao9Qs-58">
          <mxGeometry y="160" width="140" height="60" as="geometry" />
        </mxCell>
        <mxCell id="luTgBffPQvsuoYPao9Qs-7" value="" style="endArrow=classic;html=1;rounded=0;exitX=1;exitY=0.75;exitDx=0;exitDy=0;entryX=0.5;entryY=0;entryDx=0;entryDy=0;dashed=1;" edge="1" parent="luTgBffPQvsuoYPao9Qs-58">
          <mxGeometry width="50" height="50" relative="1" as="geometry">
            <mxPoint x="70.25999999999999" y="65" as="sourcePoint" />
            <mxPoint x="69.74000000000001" y="160" as="targetPoint" />
          </mxGeometry>
        </mxCell>
        <mxCell id="luTgBffPQvsuoYPao9Qs-8" value="&lt;font style=&quot;font-size: 14px;&quot;&gt;push metrics&lt;br&gt;at exit&lt;/font&gt;" style="edgeLabel;html=1;align=center;verticalAlign=middle;resizable=0;points=[];" vertex="1" connectable="0" parent="luTgBffPQvsuoYPao9Qs-7">
          <mxGeometry x="0.0699" relative="1" as="geometry">
            <mxPoint as="offset" />
          </mxGeometry>
        </mxCell>
        <mxCell id="luTgBffPQvsuoYPao9Qs-4" value="" style="group" vertex="1" connectable="0" parent="luTgBffPQvsuoYPao9Qs-58">
          <mxGeometry width="140" height="80" as="geometry" />
        </mxCell>
        <mxCell id="luTgBffPQvsuoYPao9Qs-1" value="Short-lived&lt;br style=&quot;font-size: 18px;&quot;&gt;jobs" style="rounded=1;whiteSpace=wrap;html=1;fontSize=18;" vertex="1" parent="luTgBffPQvsuoYPao9Qs-4">
          <mxGeometry width="120" height="60" as="geometry" />
        </mxCell>
        <mxCell id="luTgBffPQvsuoYPao9Qs-2" value="Short-lived&lt;br style=&quot;font-size: 18px;&quot;&gt;jobs" style="rounded=1;whiteSpace=wrap;html=1;fontSize=18;" vertex="1" parent="luTgBffPQvsuoYPao9Qs-4">
          <mxGeometry x="10" y="10" width="120" height="60" as="geometry" />
        </mxCell>
        <mxCell id="luTgBffPQvsuoYPao9Qs-3" value="Short-lived&lt;br style=&quot;font-size: 18px;&quot;&gt;jobs" style="rounded=1;whiteSpace=wrap;html=1;fontSize=18;" vertex="1" parent="luTgBffPQvsuoYPao9Qs-4">
          <mxGeometry x="20" y="20" width="120" height="60" as="geometry" />
        </mxCell>
        <mxCell id="luTgBffPQvsuoYPao9Qs-12" value="" style="group" vertex="1" connectable="0" parent="luTgBffPQvsuoYPao9Qs-58">
          <mxGeometry y="420" width="140" height="80" as="geometry" />
        </mxCell>
        <mxCell id="luTgBffPQvsuoYPao9Qs-9" value="Short-lived&lt;br style=&quot;font-size: 18px;&quot;&gt;jobs" style="rounded=1;whiteSpace=wrap;html=1;fontSize=18;" vertex="1" parent="luTgBffPQvsuoYPao9Qs-12">
          <mxGeometry width="120" height="60" as="geometry" />
        </mxCell>
        <mxCell id="luTgBffPQvsuoYPao9Qs-10" value="Short-lived&lt;br style=&quot;font-size: 18px;&quot;&gt;jobs" style="rounded=1;whiteSpace=wrap;html=1;fontSize=18;" vertex="1" parent="luTgBffPQvsuoYPao9Qs-12">
          <mxGeometry x="10" y="10" width="120" height="60" as="geometry" />
        </mxCell>
        <mxCell id="luTgBffPQvsuoYPao9Qs-11" value="Jobs/&lt;br&gt;exporters" style="rounded=1;whiteSpace=wrap;html=1;fontSize=18;" vertex="1" parent="luTgBffPQvsuoYPao9Qs-12">
          <mxGeometry x="20" y="20" width="120" height="60" as="geometry" />
        </mxCell>
        <mxCell id="luTgBffPQvsuoYPao9Qs-13" value="" style="endArrow=classic;html=1;rounded=0;entryX=0.5;entryY=0;entryDx=0;entryDy=0;dashed=1;" edge="1" parent="luTgBffPQvsuoYPao9Qs-58" target="luTgBffPQvsuoYPao9Qs-9">
          <mxGeometry width="50" height="50" relative="1" as="geometry">
            <mxPoint x="60" y="290" as="sourcePoint" />
            <mxPoint y="360" as="targetPoint" />
          </mxGeometry>
        </mxCell>
        <mxCell id="luTgBffPQvsuoYPao9Qs-14" value="" style="endArrow=classic;html=1;rounded=0;entryX=0.5;entryY=1;entryDx=0;entryDy=0;dashed=1;" edge="1" parent="luTgBffPQvsuoYPao9Qs-58" target="luTgBffPQvsuoYPao9Qs-5">
          <mxGeometry width="50" height="50" relative="1" as="geometry">
            <mxPoint x="70" y="290" as="sourcePoint" />
            <mxPoint x="80" y="250" as="targetPoint" />
          </mxGeometry>
        </mxCell>
        <mxCell id="luTgBffPQvsuoYPao9Qs-15" value="" style="endArrow=none;html=1;rounded=0;dashed=1;" edge="1" parent="luTgBffPQvsuoYPao9Qs-58">
          <mxGeometry width="50" height="50" relative="1" as="geometry">
            <mxPoint x="60" y="290" as="sourcePoint" />
            <mxPoint x="70" y="290" as="targetPoint" />
          </mxGeometry>
        </mxCell>
        <mxCell id="luTgBffPQvsuoYPao9Qs-16" value="" style="endArrow=none;html=1;rounded=0;dashed=1;entryX=0;entryY=0.5;entryDx=0;entryDy=0;" edge="1" parent="luTgBffPQvsuoYPao9Qs-58" target="luTgBffPQvsuoYPao9Qs-17">
          <mxGeometry width="50" height="50" relative="1" as="geometry">
            <mxPoint x="70" y="290" as="sourcePoint" />
            <mxPoint x="150" y="290" as="targetPoint" />
          </mxGeometry>
        </mxCell>
        <mxCell id="luTgBffPQvsuoYPao9Qs-23" value="&lt;font style=&quot;font-size: 14px;&quot;&gt;pull&lt;br&gt;metrics&lt;/font&gt;" style="edgeLabel;html=1;align=center;verticalAlign=middle;resizable=0;points=[];" vertex="1" connectable="0" parent="luTgBffPQvsuoYPao9Qs-16">
          <mxGeometry x="0.0029" y="-1" relative="1" as="geometry">
            <mxPoint as="offset" />
          </mxGeometry>
        </mxCell>
        <mxCell id="luTgBffPQvsuoYPao9Qs-17" value="Retrieval" style="rounded=1;whiteSpace=wrap;html=1;fontSize=18;" vertex="1" parent="luTgBffPQvsuoYPao9Qs-58">
          <mxGeometry x="280" y="240" width="100" height="100" as="geometry" />
        </mxCell>
        <mxCell id="luTgBffPQvsuoYPao9Qs-18" value="TSDB" style="rounded=1;whiteSpace=wrap;html=1;fontSize=18;" vertex="1" parent="luTgBffPQvsuoYPao9Qs-58">
          <mxGeometry x="420" y="240" width="100" height="100" as="geometry" />
        </mxCell>
        <mxCell id="luTgBffPQvsuoYPao9Qs-20" value="" style="edgeStyle=orthogonalEdgeStyle;rounded=0;orthogonalLoop=1;jettySize=auto;html=1;dashed=1;" edge="1" parent="luTgBffPQvsuoYPao9Qs-58" source="luTgBffPQvsuoYPao9Qs-17" target="luTgBffPQvsuoYPao9Qs-18">
          <mxGeometry relative="1" as="geometry" />
        </mxCell>
        <mxCell id="luTgBffPQvsuoYPao9Qs-21" value="" style="edgeStyle=orthogonalEdgeStyle;rounded=0;orthogonalLoop=1;jettySize=auto;html=1;dashed=1;" edge="1" parent="luTgBffPQvsuoYPao9Qs-58" source="luTgBffPQvsuoYPao9Qs-19" target="luTgBffPQvsuoYPao9Qs-18">
          <mxGeometry relative="1" as="geometry" />
        </mxCell>
        <mxCell id="luTgBffPQvsuoYPao9Qs-19" value="HTTP&lt;br&gt;Server" style="rounded=1;whiteSpace=wrap;html=1;fontSize=18;" vertex="1" parent="luTgBffPQvsuoYPao9Qs-58">
          <mxGeometry x="560" y="240" width="100" height="100" as="geometry" />
        </mxCell>
        <mxCell id="luTgBffPQvsuoYPao9Qs-22" value="HDD/SSD" style="rounded=0;whiteSpace=wrap;html=1;fontSize=18;" vertex="1" parent="luTgBffPQvsuoYPao9Qs-58">
          <mxGeometry x="410" y="470" width="120" height="60" as="geometry" />
        </mxCell>
        <mxCell id="luTgBffPQvsuoYPao9Qs-25" value="Node" style="text;html=1;strokeColor=none;fillColor=none;align=center;verticalAlign=middle;whiteSpace=wrap;rounded=0;fontSize=16;" vertex="1" parent="luTgBffPQvsuoYPao9Qs-58">
          <mxGeometry x="280" y="485" width="60" height="30" as="geometry" />
        </mxCell>
        <mxCell id="luTgBffPQvsuoYPao9Qs-26" value="" style="endArrow=classic;html=1;rounded=0;exitX=0.5;exitY=1;exitDx=0;exitDy=0;entryX=0.5;entryY=0;entryDx=0;entryDy=0;dashed=1;" edge="1" parent="luTgBffPQvsuoYPao9Qs-58" source="luTgBffPQvsuoYPao9Qs-18" target="luTgBffPQvsuoYPao9Qs-22">
          <mxGeometry width="50" height="50" relative="1" as="geometry">
            <mxPoint x="470" y="420" as="sourcePoint" />
            <mxPoint x="520" y="370" as="targetPoint" />
          </mxGeometry>
        </mxCell>
        <mxCell id="luTgBffPQvsuoYPao9Qs-28" value="" style="rounded=0;whiteSpace=wrap;html=1;fillColor=none;" vertex="1" parent="luTgBffPQvsuoYPao9Qs-58">
          <mxGeometry x="260" y="460" width="420" height="80" as="geometry" />
        </mxCell>
        <mxCell id="luTgBffPQvsuoYPao9Qs-30" value="Kubernetes" style="rounded=0;whiteSpace=wrap;html=1;fontSize=18;" vertex="1" parent="luTgBffPQvsuoYPao9Qs-58">
          <mxGeometry x="290" y="60" width="140" height="60" as="geometry" />
        </mxCell>
        <mxCell id="luTgBffPQvsuoYPao9Qs-31" value="file_sd" style="rounded=0;whiteSpace=wrap;html=1;fontSize=18;" vertex="1" parent="luTgBffPQvsuoYPao9Qs-58">
          <mxGeometry x="450" y="60" width="140" height="60" as="geometry" />
        </mxCell>
        <mxCell id="luTgBffPQvsuoYPao9Qs-32" value="Service discovery" style="text;html=1;strokeColor=none;fillColor=none;align=center;verticalAlign=middle;whiteSpace=wrap;rounded=0;fontSize=20;" vertex="1" parent="luTgBffPQvsuoYPao9Qs-58">
          <mxGeometry x="350" y="20" width="180" height="40" as="geometry" />
        </mxCell>
        <mxCell id="luTgBffPQvsuoYPao9Qs-33" value="" style="rounded=0;whiteSpace=wrap;html=1;fillColor=none;" vertex="1" parent="luTgBffPQvsuoYPao9Qs-58">
          <mxGeometry x="280" y="20" width="320" height="110" as="geometry" />
        </mxCell>
        <mxCell id="luTgBffPQvsuoYPao9Qs-34" value="" style="endArrow=classic;html=1;rounded=0;entryX=0.157;entryY=1.012;entryDx=0;entryDy=0;entryPerimeter=0;" edge="1" parent="luTgBffPQvsuoYPao9Qs-58" target="luTgBffPQvsuoYPao9Qs-33">
          <mxGeometry width="50" height="50" relative="1" as="geometry">
            <mxPoint x="329.89" y="240" as="sourcePoint" />
            <mxPoint x="329.89" y="150" as="targetPoint" />
          </mxGeometry>
        </mxCell>
        <mxCell id="luTgBffPQvsuoYPao9Qs-35" value="&lt;font style=&quot;font-size: 14px;&quot;&gt;discover&lt;br&gt;targets&lt;/font&gt;" style="edgeLabel;html=1;align=center;verticalAlign=middle;resizable=0;points=[];" vertex="1" connectable="0" parent="luTgBffPQvsuoYPao9Qs-34">
          <mxGeometry x="0.5765" relative="1" as="geometry">
            <mxPoint y="6" as="offset" />
          </mxGeometry>
        </mxCell>
        <mxCell id="luTgBffPQvsuoYPao9Qs-36" value="Prometheus Server" style="text;html=1;strokeColor=none;fillColor=none;align=center;verticalAlign=middle;whiteSpace=wrap;rounded=0;fontSize=20;" vertex="1" parent="luTgBffPQvsuoYPao9Qs-58">
          <mxGeometry x="370" y="190" width="200" height="50" as="geometry" />
        </mxCell>
        <mxCell id="luTgBffPQvsuoYPao9Qs-37" value="" style="rounded=0;whiteSpace=wrap;html=1;fillColor=none;" vertex="1" parent="luTgBffPQvsuoYPao9Qs-58">
          <mxGeometry x="260" y="190" width="420" height="260" as="geometry" />
        </mxCell>
        <mxCell id="luTgBffPQvsuoYPao9Qs-38" value="&lt;font style=&quot;font-size: 14px;&quot;&gt;Prometheus&lt;br&gt;Targets&lt;/font&gt;" style="text;html=1;strokeColor=none;fillColor=none;align=center;verticalAlign=middle;whiteSpace=wrap;rounded=0;" vertex="1" parent="luTgBffPQvsuoYPao9Qs-58">
          <mxGeometry x="30" y="500" width="100" height="40" as="geometry" />
        </mxCell>
        <mxCell id="luTgBffPQvsuoYPao9Qs-39" value="&lt;font style=&quot;font-size: 18px;&quot;&gt;Alertmanager&lt;/font&gt;" style="rounded=0;whiteSpace=wrap;html=1;" vertex="1" parent="luTgBffPQvsuoYPao9Qs-58">
          <mxGeometry x="800" y="100" width="140" height="60" as="geometry" />
        </mxCell>
        <mxCell id="luTgBffPQvsuoYPao9Qs-40" value="" style="endArrow=classic;html=1;rounded=0;exitX=1;exitY=0.5;exitDx=0;exitDy=0;entryX=0.5;entryY=1;entryDx=0;entryDy=0;dashed=1;" edge="1" parent="luTgBffPQvsuoYPao9Qs-58" source="luTgBffPQvsuoYPao9Qs-37" target="luTgBffPQvsuoYPao9Qs-39">
          <mxGeometry width="50" height="50" relative="1" as="geometry">
            <mxPoint x="750" y="290" as="sourcePoint" />
            <mxPoint x="800" y="240" as="targetPoint" />
            <Array as="points">
              <mxPoint x="870" y="320" />
            </Array>
          </mxGeometry>
        </mxCell>
        <mxCell id="luTgBffPQvsuoYPao9Qs-41" value="&lt;font style=&quot;font-size: 14px;&quot;&gt;push&lt;br&gt;alerts&lt;/font&gt;" style="edgeLabel;html=1;align=center;verticalAlign=middle;resizable=0;points=[];" vertex="1" connectable="0" parent="luTgBffPQvsuoYPao9Qs-40">
          <mxGeometry x="0.4914" y="1" relative="1" as="geometry">
            <mxPoint as="offset" />
          </mxGeometry>
        </mxCell>
        <mxCell id="luTgBffPQvsuoYPao9Qs-42" value="&lt;font style=&quot;font-size: 14px;&quot;&gt;Prometheus&lt;br&gt;Alerting&lt;br&gt;&lt;/font&gt;" style="text;html=1;strokeColor=none;fillColor=none;align=center;verticalAlign=middle;whiteSpace=wrap;rounded=0;" vertex="1" parent="luTgBffPQvsuoYPao9Qs-58">
          <mxGeometry x="820" y="60" width="100" height="40" as="geometry" />
        </mxCell>
        <mxCell id="luTgBffPQvsuoYPao9Qs-43" value="&lt;font style=&quot;font-size: 16px;&quot;&gt;Prometheus&lt;br&gt;Web UI&lt;/font&gt;" style="rounded=0;whiteSpace=wrap;html=1;" vertex="1" parent="luTgBffPQvsuoYPao9Qs-58">
          <mxGeometry x="880" y="420" width="100" height="60" as="geometry" />
        </mxCell>
        <mxCell id="luTgBffPQvsuoYPao9Qs-44" value="&lt;span style=&quot;font-size: 16px;&quot;&gt;Grafana&lt;/span&gt;" style="rounded=0;whiteSpace=wrap;html=1;" vertex="1" parent="luTgBffPQvsuoYPao9Qs-58">
          <mxGeometry x="880" y="500" width="100" height="60" as="geometry" />
        </mxCell>
        <mxCell id="luTgBffPQvsuoYPao9Qs-45" value="&lt;span style=&quot;font-size: 16px;&quot;&gt;API Clients&lt;/span&gt;" style="rounded=0;whiteSpace=wrap;html=1;" vertex="1" parent="luTgBffPQvsuoYPao9Qs-58">
          <mxGeometry x="880" y="580" width="100" height="40" as="geometry" />
        </mxCell>
        <mxCell id="luTgBffPQvsuoYPao9Qs-46" value="&lt;font style=&quot;font-size: 16px;&quot;&gt;数据可视化&lt;br&gt;和导出&lt;/font&gt;" style="text;html=1;strokeColor=none;fillColor=none;align=center;verticalAlign=middle;whiteSpace=wrap;rounded=0;" vertex="1" parent="luTgBffPQvsuoYPao9Qs-58">
          <mxGeometry x="980" y="500" width="100" height="60" as="geometry" />
        </mxCell>
        <mxCell id="luTgBffPQvsuoYPao9Qs-47" value="" style="endArrow=classic;html=1;rounded=0;entryX=1;entryY=0.75;entryDx=0;entryDy=0;exitX=0;exitY=0.5;exitDx=0;exitDy=0;dashed=1;" edge="1" parent="luTgBffPQvsuoYPao9Qs-58" source="luTgBffPQvsuoYPao9Qs-45" target="luTgBffPQvsuoYPao9Qs-37">
          <mxGeometry width="50" height="50" relative="1" as="geometry">
            <mxPoint x="770" y="470" as="sourcePoint" />
            <mxPoint x="820" y="420" as="targetPoint" />
            <Array as="points">
              <mxPoint x="800" y="600" />
              <mxPoint x="800" y="385" />
            </Array>
          </mxGeometry>
        </mxCell>
        <mxCell id="luTgBffPQvsuoYPao9Qs-48" value="" style="endArrow=none;html=1;rounded=0;entryX=0;entryY=0.5;entryDx=0;entryDy=0;dashed=1;" edge="1" parent="luTgBffPQvsuoYPao9Qs-58" target="luTgBffPQvsuoYPao9Qs-43">
          <mxGeometry width="50" height="50" relative="1" as="geometry">
            <mxPoint x="800" y="450" as="sourcePoint" />
            <mxPoint x="860" y="440" as="targetPoint" />
          </mxGeometry>
        </mxCell>
        <mxCell id="luTgBffPQvsuoYPao9Qs-49" value="" style="endArrow=none;html=1;rounded=0;entryX=0;entryY=0.5;entryDx=0;entryDy=0;dashed=1;" edge="1" parent="luTgBffPQvsuoYPao9Qs-58" target="luTgBffPQvsuoYPao9Qs-44">
          <mxGeometry width="50" height="50" relative="1" as="geometry">
            <mxPoint x="800" y="530" as="sourcePoint" />
            <mxPoint x="860" y="510" as="targetPoint" />
          </mxGeometry>
        </mxCell>
        <mxCell id="luTgBffPQvsuoYPao9Qs-50" value="PromQL" style="text;html=1;strokeColor=none;fillColor=none;align=center;verticalAlign=middle;whiteSpace=wrap;rounded=0;fontSize=14;" vertex="1" parent="luTgBffPQvsuoYPao9Qs-58">
          <mxGeometry x="750" y="360" width="60" height="20" as="geometry" />
        </mxCell>
        <mxCell id="luTgBffPQvsuoYPao9Qs-51" value="Email" style="rounded=1;whiteSpace=wrap;html=1;fontSize=18;" vertex="1" parent="luTgBffPQvsuoYPao9Qs-58">
          <mxGeometry x="1000" y="100" width="120" height="60" as="geometry" />
        </mxCell>
        <mxCell id="luTgBffPQvsuoYPao9Qs-52" value="pagerduty" style="rounded=1;whiteSpace=wrap;html=1;fontSize=18;" vertex="1" parent="luTgBffPQvsuoYPao9Qs-58">
          <mxGeometry x="1000" y="20" width="120" height="60" as="geometry" />
        </mxCell>
        <mxCell id="luTgBffPQvsuoYPao9Qs-53" value="etc" style="rounded=1;whiteSpace=wrap;html=1;fontSize=18;" vertex="1" parent="luTgBffPQvsuoYPao9Qs-58">
          <mxGeometry x="1000" y="180" width="120" height="60" as="geometry" />
        </mxCell>
        <mxCell id="luTgBffPQvsuoYPao9Qs-54" value="" style="endArrow=classic;html=1;rounded=0;entryX=0;entryY=0.5;entryDx=0;entryDy=0;exitX=1;exitY=0.5;exitDx=0;exitDy=0;dashed=1;" edge="1" parent="luTgBffPQvsuoYPao9Qs-58" source="luTgBffPQvsuoYPao9Qs-39" target="luTgBffPQvsuoYPao9Qs-52">
          <mxGeometry width="50" height="50" relative="1" as="geometry">
            <mxPoint x="940" y="90" as="sourcePoint" />
            <mxPoint x="990" y="40" as="targetPoint" />
          </mxGeometry>
        </mxCell>
        <mxCell id="luTgBffPQvsuoYPao9Qs-55" value="" style="endArrow=classic;html=1;rounded=0;entryX=0;entryY=0.5;entryDx=0;entryDy=0;exitX=1;exitY=0.5;exitDx=0;exitDy=0;dashed=1;" edge="1" parent="luTgBffPQvsuoYPao9Qs-58" source="luTgBffPQvsuoYPao9Qs-39" target="luTgBffPQvsuoYPao9Qs-51">
          <mxGeometry width="50" height="50" relative="1" as="geometry">
            <mxPoint x="890" y="240" as="sourcePoint" />
            <mxPoint x="940" y="190" as="targetPoint" />
          </mxGeometry>
        </mxCell>
        <mxCell id="luTgBffPQvsuoYPao9Qs-56" value="" style="endArrow=classic;html=1;rounded=0;entryX=0;entryY=0.5;entryDx=0;entryDy=0;exitX=1;exitY=0.5;exitDx=0;exitDy=0;dashed=1;" edge="1" parent="luTgBffPQvsuoYPao9Qs-58" source="luTgBffPQvsuoYPao9Qs-39" target="luTgBffPQvsuoYPao9Qs-53">
          <mxGeometry width="50" height="50" relative="1" as="geometry">
            <mxPoint x="920" y="250" as="sourcePoint" />
            <mxPoint x="970" y="200" as="targetPoint" />
          </mxGeometry>
        </mxCell>
        <mxCell id="luTgBffPQvsuoYPao9Qs-57" value="&lt;font style=&quot;font-size: 14px;&quot;&gt;notify&lt;/font&gt;" style="edgeLabel;html=1;align=center;verticalAlign=middle;resizable=0;points=[];" vertex="1" connectable="0" parent="luTgBffPQvsuoYPao9Qs-56">
          <mxGeometry x="0.0987" y="-1" relative="1" as="geometry">
            <mxPoint as="offset" />
          </mxGeometry>
        </mxCell>
      </root>
    </mxGraphModel>
  </diagram>
</mxfile>
